# Wavefront OBJ file
# Exported by Misfit Model 3D 1.3.8
# Thu Nov  7 11:38:56 2019

mtllib decorations.mtl

# 42 Vertices
v -2.051371 4.210828 0.038335
v 2.309279 4.186076 0.038335
v -2.180114 1.337594 0.035459
v -2.159267 1.337594 0.085784
v -2.108943 1.337594 0.106631
v -2.058617 1.337594 0.085784
v -2.037772 1.337594 0.035459
v -2.058617 1.337594 -0.014868
v -2.108943 1.337594 -0.03571
v -2.159267 1.337594 -0.014868
v -2.180114 4.301034 0.035459
v -2.159267 4.301034 0.085786
v -2.108943 4.301034 0.106631
v -2.058617 4.301034 0.085786
v -2.037772 4.301034 0.035459
v -2.058617 4.301034 -0.014866
v -2.108943 4.301034 -0.03571
v -2.159267 4.301034 -0.014866
v 2.280501 1.337594 0.035459
v 2.301345 1.337594 0.085784
v 2.351672 1.337594 0.106631
v 2.401995 1.337594 0.085784
v 2.422843 1.337594 0.035459
v 2.401995 1.337594 -0.014868
v 2.351672 1.337594 -0.035712
v 2.301345 1.337594 -0.014868
v 2.280501 4.301034 0.035459
v 2.301345 4.301034 0.085784
v 2.351672 4.301034 0.106631
v 2.401995 4.301034 0.085784
v 2.422843 4.301034 0.035459
v 2.401995 4.301034 -0.014866
v 2.351672 4.301034 -0.03571
v 2.301345 4.301034 -0.014866
v 0.12948 4.002532 0.038335
v -2.04698 3.619408 0.038335
v -0.996995 3.499434 0.038335
v 1.302486 4.038878 0.038335
v 1.292998 3.481397 0.038335
v 2.319552 3.596051 0.038335
v 0.143677 3.455674 0.038335
v -1.028841 4.063991 0.038335

# 144 Texture Coordinates
vt 0.0 1.0
vt 0.249626 1.0
vt 0.0 0.750948
vt 0.998503 1.0
vt 0.748877 0.750948
vt 0.748877 1.0
vt 0.499252 1.0
vt 0.249626 0.750948
vt 0.249626 1.0
vt 0.249626 1.0
vt 0.249626 0.750948
vt 0.0 0.750948
vt 0.499252 1.0
vt 0.748877 1.0
vt 0.499252 0.750948
vt 0.748877 0.750948
vt 0.499252 0.750948
vt 0.748877 1.0
vt 0.499252 1.0
vt 0.499252 0.750948
vt 0.249626 0.750948
vt 0.998503 1.0
vt 0.998503 0.750948
vt 0.748877 0.750948
vt 0.002138 0.000732
vt 0.012153 0.000732
vt 0.002138 0.748724
vt 0.012153 0.000732
vt 0.012153 0.748724
vt 0.002138 0.748724
vt 0.012153 0.000732
vt 0.020744 0.000732
vt 0.012153 0.748724
vt 0.020744 0.000732
vt 0.020744 0.748724
vt 0.012153 0.748724
vt 0.020744 0.000732
vt 0.027686 0.000732
vt 0.020744 0.748724
vt 0.027686 0.000732
vt 0.027686 0.748724
vt 0.020744 0.748724
vt 0.027686 0.000732
vt 0.03383 0.000732
vt 0.027686 0.748724
vt 0.03383 0.000732
vt 0.03383 0.748724
vt 0.027686 0.748724
vt 0.03383 0.000732
vt 0.039775 0.000732
vt 0.03383 0.748724
vt 0.039775 0.000732
vt 0.039775 0.748724
vt 0.03383 0.748724
vt 0.039775 0.000732
vt 0.046001 0.000732
vt 0.039775 0.748724
vt 0.046001 0.000732
vt 0.046001 0.748724
vt 0.039775 0.748724
vt 0.046001 0.000732
vt 0.053149 0.000732
vt 0.046001 0.748724
vt 0.053149 0.000732
vt 0.053149 0.748724
vt 0.046001 0.748724
vt 0.053149 0.000732
vt 0.062058 0.000732
vt 0.053149 0.748724
vt 0.062058 0.000732
vt 0.062058 0.748724
vt 0.053149 0.748724
vt 0.002138 0.000732
vt 0.012153 0.000732
vt 0.002138 0.748724
vt 0.012153 0.000732
vt 0.012153 0.748724
vt 0.002138 0.748724
vt 0.012153 0.000732
vt 0.020744 0.000732
vt 0.012153 0.748724
vt 0.020744 0.000732
vt 0.020744 0.748724
vt 0.012153 0.748724
vt 0.020744 0.000732
vt 0.027686 0.000732
vt 0.020744 0.748724
vt 0.027686 0.000732
vt 0.027686 0.748724
vt 0.020744 0.748724
vt 0.027686 0.000732
vt 0.03383 0.000732
vt 0.027686 0.748724
vt 0.03383 0.000732
vt 0.03383 0.748724
vt 0.027686 0.748724
vt 0.03383 0.000732
vt 0.039775 0.000732
vt 0.03383 0.748724
vt 0.039775 0.000732
vt 0.039775 0.748724
vt 0.03383 0.748724
vt 0.039775 0.000732
vt 0.046001 0.000732
vt 0.039775 0.748724
vt 0.046001 0.000732
vt 0.046001 0.748724
vt 0.039775 0.748724
vt 0.046001 0.000732
vt 0.053149 0.000732
vt 0.046001 0.748724
vt 0.053149 0.000732
vt 0.053149 0.748724
vt 0.046001 0.748724
vt 0.053149 0.000732
vt 0.062058 0.000732
vt 0.053149 0.748724
vt 0.062058 0.000732
vt 0.062058 0.748724
vt 0.053149 0.748724
vt 0.0 0.750948
vt 0.249626 1.0
vt 0.0 1.0
vt 0.748877 1.0
vt 0.748877 0.750948
vt 0.998503 1.0
vt 0.249626 1.0
vt 0.249626 0.750948
vt 0.499252 1.0
vt 0.0 0.750948
vt 0.249626 0.750948
vt 0.249626 1.0
vt 0.499252 0.750948
vt 0.748877 1.0
vt 0.499252 1.0
vt 0.748877 1.0
vt 0.499252 0.750948
vt 0.748877 0.750948
vt 0.249626 0.750948
vt 0.499252 0.750948
vt 0.499252 1.0
vt 0.748877 0.750948
vt 0.998503 0.750948
vt 0.998503 1.0

# 144 Vertex Normals
vn 0.0 0.0 1.0
vn 0.0 -0.0 1.0
vn 0.0 -0.0 1.0
vn 0.0 -0.0 1.0
vn 0.0 -0.0 1.0
vn 0.0 0.0 1.0
vn 0.0 0.0 1.0
vn 0.0 0.0 1.0
vn 0.0 -0.0 1.0
vn 0.0 -0.0 1.0
vn 0.0 0.0 1.0
vn 0.0 -0.0 1.0
vn 0.0 0.0 1.0
vn 0.0 0.0 1.0
vn 0.0 0.0 1.0
vn 0.0 -0.0 1.0
vn 0.0 0.0 1.0
vn 0.0 0.0 1.0
vn 0.0 0.0 1.0
vn 0.0 0.0 1.0
vn 0.0 0.0 1.0
vn 0.0 -0.0 1.0
vn 0.0 -0.0 1.0
vn 0.0 -0.0 1.0
vn -0.990601 0.0 -0.13678
vn -0.797172 -0.0 0.603752
vn -0.990601 -0.0 0.13678
vn -0.797172 -0.0 0.603752
vn -0.603754 -0.0 0.79717
vn -0.990601 -0.0 0.13678
vn -0.797172 -0.0 0.603752
vn -0.136779 -0.0 0.990602
vn -0.603754 -0.0 0.79717
vn -0.136779 -0.0 0.990602
vn 0.136777 -0.0 0.990602
vn -0.603754 -0.0 0.79717
vn -0.136779 -0.0 0.990602
vn 0.603752 -0.0 0.797173
vn 0.136777 -0.0 0.990602
vn 0.603752 -0.0 0.797173
vn 0.797176 -0.0 0.603747
vn 0.136777 -0.0 0.990602
vn 0.603752 -0.0 0.797173
vn 0.990602 -0.0 0.136773
vn 0.797176 -0.0 0.603747
vn 0.990602 -0.0 0.136773
vn 0.990602 0.0 -0.136773
vn 0.797176 -0.0 0.603747
vn 0.990602 -0.0 0.136773
vn 0.797167 0.0 -0.603759
vn 0.990602 0.0 -0.136773
vn 0.797167 0.0 -0.603759
vn 0.603723 0.0 -0.797194
vn 0.990602 0.0 -0.136773
vn 0.797167 0.0 -0.603759
vn 0.136758 0.0 -0.990604
vn 0.603723 0.0 -0.797194
vn 0.136758 0.0 -0.990604
vn -0.13676 0.0 -0.990604
vn 0.603723 0.0 -0.797194
vn 0.136758 0.0 -0.990604
vn -0.603726 0.0 -0.797192
vn -0.13676 0.0 -0.990604
vn -0.603726 0.0 -0.797192
vn -0.797163 0.0 -0.603764
vn -0.13676 0.0 -0.990604
vn -0.603726 0.0 -0.797192
vn -0.990601 0.0 -0.13678
vn -0.797163 0.0 -0.603764
vn -0.990601 0.0 -0.13678
vn -0.990601 -0.0 0.13678
vn -0.797163 0.0 -0.603764
vn -0.990604 0.0 -0.136763
vn -0.797185 0.0 0.603735
vn -0.990603 0.0 0.136767
vn -0.797185 0.0 0.603735
vn -0.603761 0.0 0.797165
vn -0.990603 0.0 0.136767
vn -0.797185 0.0 0.603735
vn -0.136772 0.0 0.990602
vn -0.603761 0.0 0.797165
vn -0.136772 0.0 0.990602
vn 0.136798 0.0 0.990599
vn -0.603761 0.0 0.797165
vn -0.136772 0.0 0.990602
vn 0.60376 0.0 0.797166
vn 0.136798 0.0 0.990599
vn 0.60376 0.0 0.797166
vn 0.797164 0.0 0.603763
vn 0.136798 0.0 0.990599
vn 0.60376 0.0 0.797166
vn 0.990599 0.0 0.136796
vn 0.797164 0.0 0.603763
vn 0.990599 0.0 0.136796
vn 0.990601 0.0 -0.136786
vn 0.797164 0.0 0.603763
vn 0.990599 0.0 0.136796
vn 0.797157 0.0 -0.603772
vn 0.990601 0.0 -0.136786
vn 0.797157 0.0 -0.603772
vn 0.603732 0.000001 -0.797187
vn 0.990601 0.0 -0.136786
vn 0.797157 0.0 -0.603772
vn 0.136778 0.000001 -0.990602
vn 0.603732 0.000001 -0.797187
vn 0.136778 0.000001 -0.990602
vn -0.136753 0.000001 -0.990605
vn 0.603732 0.000001 -0.797187
vn 0.136778 0.000001 -0.990602
vn -0.603737 0.000001 -0.797184
vn -0.136753 0.000001 -0.990605
vn -0.603737 0.000001 -0.797184
vn -0.797179 0.0 -0.603744
vn -0.136753 0.000001 -0.990605
vn -0.603737 0.000001 -0.797184
vn -0.990604 0.0 -0.136763
vn -0.797179 0.0 -0.603744
vn -0.990604 0.0 -0.136763
vn -0.990603 0.0 0.136767
vn -0.797179 0.0 -0.603744
vn 0.0 0.0 -1.0
vn 0.0 -0.0 -1.0
vn 0.0 0.0 -1.0
vn 0.0 0.0 -1.0
vn 0.0 0.0 -1.0
vn 0.0 0.0 -1.0
vn 0.0 -0.0 -1.0
vn 0.0 -0.0 -1.0
vn 0.0 -0.0 -1.0
vn 0.0 0.0 -1.0
vn 0.0 -0.0 -1.0
vn 0.0 -0.0 -1.0
vn 0.0 0.0 -1.0
vn 0.0 0.0 -1.0
vn 0.0 -0.0 -1.0
vn 0.0 0.0 -1.0
vn 0.0 0.0 -1.0
vn 0.0 0.0 -1.0
vn 0.0 -0.0 -1.0
vn 0.0 0.0 -1.0
vn 0.0 -0.0 -1.0
vn 0.0 0.0 -1.0
vn 0.0 0.0 -1.0
vn 0.0 0.0 -1.0

# pole, 48 grouped triangles

usemtl decorations.jpg
o pole
g pole

f 2/1/1 38/2/2 40/3/3
f 1/4/4 37/5/5 42/6/6
f 35/7/7 39/8/8 38/9/9
f 38/10/10 39/11/11 40/12/12
f 35/13/13 42/14/14 41/15/15
f 37/16/16 41/17/17 42/18/18
f 35/19/19 41/20/20 39/21/21
f 1/22/22 36/23/23 37/24/24
f 3/25/25 4/26/26 11/27/27
f 4/28/28 12/29/29 11/30/30
f 4/31/31 5/32/32 12/33/33
f 5/34/34 13/35/35 12/36/36
f 5/37/37 6/38/38 13/39/39
f 6/40/40 14/41/41 13/42/42
f 6/43/43 7/44/44 14/45/45
f 7/46/46 15/47/47 14/48/48
f 7/49/49 8/50/50 15/51/51
f 8/52/52 16/53/53 15/54/54
f 8/55/55 9/56/56 16/57/57
f 9/58/58 17/59/59 16/60/60
f 9/61/61 10/62/62 17/63/63
f 10/64/64 18/65/65 17/66/66
f 10/67/67 3/68/68 18/69/69
f 3/70/70 11/71/71 18/72/72
f 19/73/73 20/74/74 27/75/75
f 20/76/76 28/77/77 27/78/78
f 20/79/79 21/80/80 28/81/81
f 21/82/82 29/83/83 28/84/84
f 21/85/85 22/86/86 29/87/87
f 22/88/88 30/89/89 29/90/90
f 22/91/91 23/92/92 30/93/93
f 23/94/94 31/95/95 30/96/96
f 23/97/97 24/98/98 31/99/99
f 24/100/100 32/101/101 31/102/102
f 24/103/103 25/104/104 32/105/105
f 25/106/106 33/107/107 32/108/108
f 25/109/109 26/110/110 33/111/111
f 26/112/112 34/113/113 33/114/114
f 26/115/115 19/116/116 34/117/117
f 19/118/118 27/119/119 34/120/120
f 40/121/121 38/122/122 2/123/123
f 42/124/124 37/125/125 1/126/126
f 38/127/127 39/128/128 35/129/129
f 40/130/130 39/131/131 38/132/132
f 41/133/133 42/134/134 35/135/135
f 42/136/136 41/137/137 37/138/138
f 39/139/139 41/140/140 35/141/141
f 37/142/142 36/143/143 1/144/144
