# Wavefront OBJ file
# Exported by Misfit Model 3D 1.3.8
# Tue Oct 29 15:12:20 2019

mtllib fence.mtl

# 8 Vertices
v -20.032387 4.51575 -22.727188
v -20.032387 1.595759 -22.727188
v 27.926739 4.51575 -22.727188
v 27.926739 1.595759 -22.727188
v -20.032387 4.515749 31.638401
v -20.032387 1.595758 31.638401
v 27.926739 4.515749 31.638401
v 27.926739 1.595758 31.638401

# 24 Texture Coordinates
vt 0.0 1.0
vt 0.0 0.0
vt 40.520214 0.03312
vt 40.520214 0.03312
vt 40.520214 1.03312
vt 0.0 1.0
vt 0.0 1.0
vt 0.0 0.0
vt 40.520214 0.03312
vt 40.520214 0.03312
vt 40.520214 1.03312
vt 0.0 1.0
vt 0.0 1.0
vt 0.0 0.0
vt 40.520214 0.03312
vt 40.520214 0.03312
vt 40.520214 1.03312
vt 0.0 1.0
vt 0.0 1.0
vt 0.0 0.0
vt 40.520214 0.03312
vt 40.520214 0.03312
vt 40.520214 1.03312
vt 0.0 1.0

# 24 Vertex Normals
vn 0.0 0.0 1.0
vn 0.0 0.0 1.0
vn 0.0 0.0 1.0
vn 0.0 0.0 1.0
vn 0.0 0.0 1.0
vn 0.0 0.0 1.0
vn 1.0 0.0 0.0
vn 1.0 0.0 0.0
vn 1.0 0.0 0.0
vn 1.0 0.0 0.0
vn 1.0 0.0 0.0
vn 1.0 0.0 0.0
vn 0.0 0.0 -1.0
vn 0.0 0.0 -1.0
vn 0.0 0.0 -1.0
vn 0.0 0.0 -1.0
vn 0.0 0.0 -1.0
vn 0.0 0.0 -1.0
vn -1.0 0.0 0.0
vn -1.0 0.0 0.0
vn -1.0 0.0 0.0
vn -1.0 0.0 0.0
vn -1.0 0.0 0.0
vn -1.0 0.0 0.0

# fence, 8 grouped triangles

usemtl wood.jpg
o fence
g fence

f 1/1/1 2/2/2 4/3/3
f 4/4/4 3/5/5 1/6/6
f 5/7/7 6/8/8 2/9/9
f 2/10/10 1/11/11 5/12/12
f 7/13/13 8/14/14 6/15/15
f 6/16/16 5/17/17 7/18/18
f 3/19/19 4/20/20 8/21/21
f 8/22/22 7/23/23 3/24/24
