# Wavefront OBJ file
# Exported by Misfit Model 3D 1.3.8
# Sat Oct 19 17:28:44 2019

mtllib flags.mtl

# 88 Vertices
v -52.371006 2.311621 -162.493591
v -52.227722 2.311621 -162.493591
v -52.371006 2.311621 -162.639999
v -52.227722 2.311621 -162.639999
v -52.227722 0.118972 -162.493591
v -52.371006 0.118972 -162.493591
v -52.227722 0.118972 -162.639999
v -52.371006 0.118972 -162.639999
v -52.319149 2.301673 -162.563766
v -52.755043 1.998183 -162.563766
v -52.32972 1.68859 -162.563766
v 14.152296 2.311621 -146.225861
v 14.149463 2.311621 -146.369125
v 14.005916 2.311621 -146.222977
v 14.003084 2.311621 -146.366226
v 14.149463 0.118972 -146.369125
v 14.152296 0.118972 -146.225861
v 14.003084 0.118972 -146.366226
v 14.005916 0.118972 -146.222977
v 14.081109 2.301673 -146.276321
v 14.089726 1.998183 -145.840515
v 14.081318 1.68859 -146.265762
v 88.13913 2.311621 -171.987701
v 88.00853 2.311621 -171.928757
v 88.199364 2.311621 -171.854263
v 88.068771 2.311621 -171.795303
v 88.00853 0.118972 -171.928757
v 88.13913 0.118972 -171.987701
v 88.068771 0.118972 -171.795319
v 88.199364 0.118972 -171.854263
v 88.120735 2.301673 -171.902405
v 88.518028 1.998183 -172.081741
v 88.130371 1.68859 -171.906754
v 40.325413 2.311619 -95.931778
v 40.468697 2.311619 -95.931778
v 40.325413 2.311619 -96.078186
v 40.468697 2.311619 -96.078186
v 40.468697 0.11897 -95.931778
v 40.325413 0.11897 -95.931778
v 40.468697 0.11897 -96.078186
v 40.325413 0.11897 -96.078186
v 40.37727 2.301671 -96.001953
v 39.941376 1.998181 -96.001953
v 40.366699 1.688588 -96.001953
v 112.382217 2.311619 -77.472008
v 112.24855 2.311619 -77.420403
v 112.434952 2.311619 -77.335419
v 112.301285 2.311619 -77.283813
v 112.24855 0.11897 -77.420403
v 112.382217 0.11897 -77.472008
v 112.301285 0.11897 -77.283813
v 112.434952 0.11897 -77.335419
v 112.359116 2.301671 -77.387863
v 112.765762 1.998181 -77.544853
v 112.36898 1.688588 -77.39167
v 53.55405 2.311616 11.040049
v 53.502502 2.311616 10.90636
v 53.417446 2.311616 11.092723
v 53.365898 2.311616 10.959034
v 53.502502 0.118967 10.906359
v 53.55405 0.118967 11.040049
v 53.365898 0.118967 10.959033
v 53.417446 0.118967 11.092723
v 53.469917 2.301668 11.016912
v 53.626743 1.998178 11.423618
v 53.473721 1.688585 11.026774
v 3.212327 2.311616 7.534066
v 3.332294 2.311616 7.455719
v 3.132272 2.311616 7.411484
v 3.252238 2.311616 7.333137
v 3.332294 0.118967 7.455719
v 3.212327 0.118967 7.534066
v 3.252238 0.118967 7.333137
v 3.132272 0.118967 7.411484
v 3.217374 2.301668 7.446956
v 2.852415 1.998178 7.685301
v 3.208523 1.688586 7.452736
v 8.09133 2.311619 -86.481468
v 7.948047 2.311619 -86.481468
v 8.09133 2.311619 -86.33506
v 7.948047 2.311619 -86.33506
v 7.948047 0.11897 -86.481468
v 8.09133 0.11897 -86.481468
v 7.948047 0.11897 -86.33506
v 8.09133 0.11897 -86.33506
v 8.039473 2.301671 -86.411293
v 8.475367 1.998181 -86.411293
v 8.050044 1.688588 -86.411293

# 240 Texture Coordinates
vt 1.0 1.0
vt 0.944598 0.0
vt 0.944598 1.0
vt 1.0 1.0
vt 1.0 0.0
vt 0.944598 0.0
vt 1.0 0.0
vt 0.944598 1.0
vt 0.944598 0.0
vt 1.0 0.0
vt 1.0 1.0
vt 0.944598 1.0
vt 0.933646 1.0
vt 1.0 0.0
vt 0.933646 0.0
vt 0.933646 1.0
vt 1.0 1.0
vt 1.0 0.0
vt 1.0 1.0
vt 0.933646 0.0
vt 1.0 0.0
vt 1.0 1.0
vt 0.933646 1.0
vt 0.933646 0.0
vt 0.009563 0.984747
vt 0.009563 0.011865
vt 0.902685 0.011865
vt 1.0 1.0
vt 0.944598 0.0
vt 0.944598 1.0
vt 1.0 1.0
vt 1.0 0.0
vt 0.944598 0.0
vt 1.0 0.0
vt 0.944598 1.0
vt 0.944598 0.0
vt 1.0 0.0
vt 1.0 1.0
vt 0.944598 1.0
vt 0.933646 1.0
vt 1.0 0.0
vt 0.933646 0.0
vt 0.933646 1.0
vt 1.0 1.0
vt 1.0 0.0
vt 1.0 1.0
vt 0.933646 0.0
vt 1.0 0.0
vt 1.0 1.0
vt 0.933646 1.0
vt 0.933646 0.0
vt 0.009563 0.984747
vt 0.009563 0.011865
vt 0.902685 0.011865
vt 1.0 1.0
vt 0.944598 0.0
vt 0.944598 1.0
vt 1.0 1.0
vt 1.0 0.0
vt 0.944598 0.0
vt 1.0 0.0
vt 0.944598 1.0
vt 0.944598 0.0
vt 1.0 0.0
vt 1.0 1.0
vt 0.944598 1.0
vt 0.933646 1.0
vt 1.0 0.0
vt 0.933646 0.0
vt 0.933646 1.0
vt 1.0 1.0
vt 1.0 0.0
vt 1.0 1.0
vt 0.933646 0.0
vt 1.0 0.0
vt 1.0 1.0
vt 0.933646 1.0
vt 0.933646 0.0
vt 0.009563 0.984747
vt 0.009563 0.011865
vt 0.902685 0.011865
vt 1.0 1.0
vt 0.944598 0.0
vt 0.944598 1.0
vt 1.0 1.0
vt 1.0 0.0
vt 0.944598 0.0
vt 1.0 0.0
vt 0.944598 1.0
vt 0.944598 0.0
vt 1.0 0.0
vt 1.0 1.0
vt 0.944598 1.0
vt 0.933646 1.0
vt 1.0 0.0
vt 0.933646 0.0
vt 0.933646 1.0
vt 1.0 1.0
vt 1.0 0.0
vt 1.0 1.0
vt 0.933646 0.0
vt 1.0 0.0
vt 1.0 1.0
vt 0.933646 1.0
vt 0.933646 0.0
vt 0.009563 0.984747
vt 0.009563 0.011865
vt 0.902685 0.011865
vt 1.0 1.0
vt 0.944598 0.0
vt 0.944598 1.0
vt 1.0 1.0
vt 1.0 0.0
vt 0.944598 0.0
vt 1.0 0.0
vt 0.944598 1.0
vt 0.944598 0.0
vt 1.0 0.0
vt 1.0 1.0
vt 0.944598 1.0
vt 0.933646 1.0
vt 1.0 0.0
vt 0.933646 0.0
vt 0.933646 1.0
vt 1.0 1.0
vt 1.0 0.0
vt 1.0 1.0
vt 0.933646 0.0
vt 1.0 0.0
vt 1.0 1.0
vt 0.933646 1.0
vt 0.933646 0.0
vt 0.009563 0.984747
vt 0.009563 0.011865
vt 0.902685 0.011865
vt 1.0 1.0
vt 0.944598 0.0
vt 0.944598 1.0
vt 1.0 1.0
vt 1.0 0.0
vt 0.944598 0.0
vt 1.0 0.0
vt 0.944598 1.0
vt 0.944598 0.0
vt 1.0 0.0
vt 1.0 1.0
vt 0.944598 1.0
vt 0.933646 1.0
vt 1.0 0.0
vt 0.933646 0.0
vt 0.933646 1.0
vt 1.0 1.0
vt 1.0 0.0
vt 1.0 1.0
vt 0.933646 0.0
vt 1.0 0.0
vt 1.0 1.0
vt 0.933646 1.0
vt 0.933646 0.0
vt 0.009563 0.984747
vt 0.009563 0.011865
vt 0.902685 0.011865
vt 1.0 1.0
vt 0.944598 0.0
vt 0.944598 1.0
vt 1.0 1.0
vt 1.0 0.0
vt 0.944598 0.0
vt 1.0 0.0
vt 0.944598 1.0
vt 0.944598 0.0
vt 1.0 0.0
vt 1.0 1.0
vt 0.944598 1.0
vt 0.933646 1.0
vt 1.0 0.0
vt 0.933646 0.0
vt 0.933646 1.0
vt 1.0 1.0
vt 1.0 0.0
vt 1.0 1.0
vt 0.933646 0.0
vt 1.0 0.0
vt 1.0 1.0
vt 0.933646 1.0
vt 0.933646 0.0
vt 0.009563 0.984747
vt 0.009563 0.011865
vt 0.902685 0.011865
vt 1.0 1.0
vt 0.944598 0.0
vt 0.944598 1.0
vt 1.0 1.0
vt 1.0 0.0
vt 0.944598 0.0
vt 1.0 0.0
vt 0.944598 1.0
vt 0.944598 0.0
vt 1.0 0.0
vt 1.0 1.0
vt 0.944598 1.0
vt 0.933646 1.0
vt 1.0 0.0
vt 0.933646 0.0
vt 0.933646 1.0
vt 1.0 1.0
vt 1.0 0.0
vt 1.0 1.0
vt 0.933646 0.0
vt 1.0 0.0
vt 1.0 1.0
vt 0.933646 1.0
vt 0.933646 0.0
vt 0.009563 0.984747
vt 0.009563 0.011865
vt 0.902685 0.011865
vt 0.902685 0.011865
vt 0.009563 0.011865
vt 0.009563 0.984747
vt 0.902685 0.011865
vt 0.009563 0.011865
vt 0.009563 0.984747
vt 0.902685 0.011865
vt 0.009563 0.011865
vt 0.009563 0.984747
vt 0.902685 0.011865
vt 0.009563 0.011865
vt 0.009563 0.984747
vt 0.902685 0.011865
vt 0.009563 0.011865
vt 0.009563 0.984747
vt 0.902685 0.011865
vt 0.009563 0.011865
vt 0.009563 0.984747
vt 0.902685 0.011865
vt 0.009563 0.011865
vt 0.009563 0.984747
vt 0.902685 0.011865
vt 0.009563 0.011865
vt 0.009563 0.984747

# 240 Vertex Normals
vn -1.0 0.0 0.0
vn -1.0 0.0 0.0
vn -1.0 0.0 0.0
vn -1.0 0.0 0.0
vn -1.0 0.0 0.0
vn -1.0 0.0 0.0
vn 1.0 0.0 0.0
vn 1.0 0.0 0.0
vn 1.0 0.0 0.0
vn 1.0 0.0 0.0
vn 1.0 0.0 0.0
vn 1.0 0.0 0.0
vn 0.0 0.0 -1.0
vn 0.0 0.0 -1.0
vn 0.0 0.0 -1.0
vn 0.0 0.0 -1.0
vn 0.0 0.0 -1.0
vn 0.0 0.0 -1.0
vn 0.0 0.0 1.0
vn 0.0 0.0 1.0
vn 0.0 0.0 1.0
vn 0.0 0.0 1.0
vn 0.0 0.0 1.0
vn 0.0 0.0 1.0
vn 0.0 0.0 1.0
vn 0.0 0.0 1.0
vn 0.0 0.0 1.0
vn 0.019698 0.0 0.999806
vn 0.019698 0.0 0.999806
vn 0.019698 0.0 0.999806
vn 0.019698 0.0 0.999806
vn 0.019698 0.0 0.999806
vn 0.019698 0.0 0.999806
vn -0.019802 0.0 -0.999804
vn -0.019802 0.0 -0.999804
vn -0.019802 0.0 -0.999804
vn -0.019802 0.0 -0.999804
vn -0.019802 0.0 -0.999804
vn -0.019802 0.0 -0.999804
vn -0.999805 0.0 0.019762
vn -0.999805 0.0 0.019762
vn -0.999805 0.0 0.019762
vn -0.999805 0.0 0.019762
vn -0.999805 0.0 0.019762
vn -0.999805 0.0 0.019762
vn 0.999804 0.0 -0.019772
vn 0.999804 0.0 -0.019772
vn 0.999804 0.0 -0.019772
vn 0.999804 0.0 -0.019772
vn 0.999804 0.0 -0.019772
vn 0.999804 0.0 -0.019772
vn 0.999805 -0.0 -0.01977
vn 0.999805 -0.0 -0.01977
vn 0.999805 -0.0 -0.01977
vn 0.911434 0.0 -0.411447
vn 0.911434 0.0 -0.411447
vn 0.911434 0.0 -0.411447
vn 0.911434 0.0 -0.411447
vn 0.911434 0.0 -0.411447
vn 0.911434 0.0 -0.411447
vn -0.911425 -0.000001 0.411467
vn -0.911425 -0.000001 0.411467
vn -0.911416 0.0 0.411486
vn -0.911425 -0.000001 0.411467
vn -0.911434 -0.000003 0.411447
vn -0.911425 -0.000001 0.411467
vn 0.411439 -0.000003 0.911437
vn 0.411439 -0.000003 0.911437
vn 0.411395 0.0 0.911457
vn 0.411439 -0.000003 0.911437
vn 0.411483 -0.000006 0.911417
vn 0.411439 -0.000003 0.911437
vn -0.411376 0.0 -0.911466
vn -0.411376 0.0 -0.911466
vn -0.411376 0.0 -0.911466
vn -0.411376 0.0 -0.911466
vn -0.411376 0.0 -0.911466
vn -0.411376 0.0 -0.911466
vn -0.411425 0.0 -0.911444
vn -0.411425 0.0 -0.911444
vn -0.411425 0.0 -0.911444
vn -1.0 0.0 0.0
vn -1.0 0.0 0.0
vn -1.0 0.0 0.0
vn -1.0 0.0 0.0
vn -1.0 0.0 0.0
vn -1.0 0.0 0.0
vn 1.0 0.0 0.0
vn 1.0 0.0 0.0
vn 1.0 0.0 0.0
vn 1.0 0.0 0.0
vn 1.0 0.0 0.0
vn 1.0 0.0 0.0
vn 0.0 0.0 -1.0
vn 0.0 0.0 -1.0
vn 0.0 0.0 -1.0
vn 0.0 0.0 -1.0
vn 0.0 0.0 -1.0
vn 0.0 0.0 -1.0
vn 0.0 0.0 1.0
vn 0.0 0.0 1.0
vn 0.0 0.0 1.0
vn 0.0 0.0 1.0
vn 0.0 0.0 1.0
vn 0.0 0.0 1.0
vn 0.0 0.0 1.0
vn 0.0 0.0 1.0
vn 0.0 0.0 1.0
vn 0.932884 0.0 -0.360178
vn 0.932884 0.0 -0.360178
vn 0.932884 0.0 -0.360178
vn 0.932884 0.0 -0.360178
vn 0.932884 0.0 -0.360178
vn 0.932884 0.0 -0.360178
vn -0.932884 0.0 0.360178
vn -0.932884 0.0 0.360178
vn -0.932884 0.0 0.360178
vn -0.932884 0.0 0.360178
vn -0.932884 0.0 0.360178
vn -0.932884 0.0 0.360178
vn 0.360173 0.0 0.932885
vn 0.360173 0.0 0.932885
vn 0.360173 0.0 0.932885
vn 0.360173 0.0 0.932885
vn 0.360173 0.0 0.932885
vn 0.360173 0.0 0.932885
vn -0.360173 0.0 -0.932885
vn -0.360173 0.0 -0.932885
vn -0.360173 0.0 -0.932885
vn -0.360173 0.0 -0.932885
vn -0.360173 0.0 -0.932885
vn -0.360173 0.0 -0.932885
vn -0.360153 0.0 -0.932893
vn -0.360153 0.0 -0.932893
vn -0.360153 0.0 -0.932893
vn 0.359772 0.0 0.93304
vn 0.359772 0.0 0.93304
vn 0.359772 0.0 0.93304
vn 0.359772 0.0 0.93304
vn 0.359772 0.0 0.93304
vn 0.359772 0.0 0.93304
vn -0.35978 0.0 -0.933037
vn -0.35978 0.0 -0.933037
vn -0.35978 0.0 -0.933037
vn -0.35978 0.0 -0.933037
vn -0.35978 0.0 -0.933037
vn -0.35978 0.0 -0.933037
vn -0.933049 -0.0 0.35975
vn -0.933049 -0.0 0.35975
vn -0.933049 0.0 0.359749
vn -0.933049 -0.0 0.35975
vn -0.933048 -0.0 0.359751
vn -0.933049 -0.0 0.35975
vn 0.933041 0.0 -0.359771
vn 0.933041 0.0 -0.359771
vn 0.933041 0.0 -0.35977
vn 0.933041 0.0 -0.359771
vn 0.93304 0.0 -0.359772
vn 0.933041 0.0 -0.359771
vn 0.933034 0.000001 -0.359787
vn 0.933034 0.000001 -0.359787
vn 0.933034 0.000001 -0.359787
vn -0.837267 0.0 0.546794
vn -0.837267 0.0 0.546794
vn -0.837267 0.0 0.546794
vn -0.837267 0.0 0.546794
vn -0.837267 0.0 0.546794
vn -0.837267 0.0 0.546794
vn 0.837263 0.0 -0.5468
vn 0.837263 0.0 -0.5468
vn 0.837263 0.0 -0.5468
vn 0.837263 0.0 -0.5468
vn 0.837263 0.0 -0.5468
vn 0.837263 0.0 -0.5468
vn -0.546797 0.0 -0.837265
vn -0.546797 0.0 -0.837265
vn -0.546797 0.0 -0.837265
vn -0.546797 0.0 -0.837265
vn -0.546797 0.0 -0.837265
vn -0.546797 0.0 -0.837265
vn 0.546796 0.0 0.837266
vn 0.546796 0.0 0.837266
vn 0.546796 0.0 0.837266
vn 0.546796 0.0 0.837266
vn 0.546796 0.0 0.837266
vn 0.546796 0.0 0.837266
vn 0.546796 -0.000001 0.837266
vn 0.546796 -0.000001 0.837266
vn 0.546796 -0.000001 0.837266
vn 1.0 0.0 0.0
vn 1.0 0.0 0.0
vn 1.0 0.0 0.0
vn 1.0 0.0 0.0
vn 1.0 0.0 0.0
vn 1.0 0.0 0.0
vn -1.0 0.0 0.0
vn -1.0 0.0 0.0
vn -1.0 0.0 0.0
vn -1.0 0.0 0.0
vn -1.0 0.0 0.0
vn -1.0 0.0 0.0
vn 0.0 0.0 1.0
vn 0.0 0.0 1.0
vn 0.0 0.0 1.0
vn 0.0 0.0 1.0
vn 0.0 0.0 1.0
vn 0.0 0.0 1.0
vn 0.0 0.0 -1.0
vn 0.0 0.0 -1.0
vn 0.0 0.0 -1.0
vn 0.0 0.0 -1.0
vn 0.0 0.0 -1.0
vn 0.0 0.0 -1.0
vn 0.0 0.0 -1.0
vn 0.0 0.0 -1.0
vn 0.0 0.0 -1.0
vn 0.0 0.0 -1.0
vn 0.0 0.0 -1.0
vn 0.0 0.0 -1.0
vn -0.999805 0.0 0.01977
vn -0.999805 0.0 0.01977
vn -0.999805 0.0 0.01977
vn 0.411425 0.0 0.911444
vn 0.411425 0.0 0.911444
vn 0.411425 0.0 0.911444
vn 0.0 0.0 -1.0
vn 0.0 0.0 -1.0
vn 0.0 0.0 -1.0
vn 0.360153 0.0 0.932893
vn 0.360153 0.0 0.932893
vn 0.360153 0.0 0.932893
vn -0.933034 -0.000001 0.359787
vn -0.933034 -0.000001 0.359787
vn -0.933034 -0.000001 0.359787
vn -0.546796 0.000001 -0.837266
vn -0.546796 0.000001 -0.837266
vn -0.546796 0.000001 -0.837266
vn 0.0 0.0 1.0
vn 0.0 0.0 1.0
vn 0.0 0.0 1.0

# flags, 80 grouped triangles

usemtl flags.jpg
o flags
g flags

f 3/1/1 6/2/2 1/3/3
f 3/4/4 8/5/5 6/6/6
f 7/7/7 2/8/8 5/9/9
f 7/10/10 4/11/11 2/12/12
f 3/13/13 7/14/14 8/15/15
f 3/16/16 4/17/17 7/18/18
f 2/19/19 6/20/20 5/21/21
f 2/22/22 1/23/23 6/24/24
f 9/25/25 10/26/26 11/27/27
f 14/28/28 17/29/29 12/30/30
f 14/31/31 19/32/32 17/33/33
f 18/34/34 13/35/35 16/36/36
f 18/37/37 15/38/38 13/39/39
f 14/40/40 18/41/41 19/42/42
f 14/43/43 15/44/44 18/45/45
f 13/46/46 17/47/47 16/48/48
f 13/49/49 12/50/50 17/51/51
f 20/52/52 21/53/53 22/54/54
f 25/55/55 28/56/56 23/57/57
f 25/58/58 30/59/59 28/60/60
f 29/61/61 24/62/62 27/63/63
f 29/64/64 26/65/65 24/66/66
f 25/67/67 29/68/68 30/69/69
f 25/70/70 26/71/71 29/72/72
f 24/73/73 28/74/74 27/75/75
f 24/76/76 23/77/77 28/78/78
f 31/79/79 32/80/80 33/81/81
f 36/82/82 39/83/83 34/84/84
f 36/85/85 41/86/86 39/87/87
f 40/88/88 35/89/89 38/90/90
f 40/91/91 37/92/92 35/93/93
f 36/94/94 40/95/95 41/96/96
f 36/97/97 37/98/98 40/99/99
f 35/100/100 39/101/101 38/102/102
f 35/103/103 34/104/104 39/105/105
f 42/106/106 43/107/107 44/108/108
f 47/109/109 50/110/110 45/111/111
f 47/112/112 52/113/113 50/114/114
f 51/115/115 46/116/116 49/117/117
f 51/118/118 48/119/119 46/120/120
f 47/121/121 51/122/122 52/123/123
f 47/124/124 48/125/125 51/126/126
f 46/127/127 50/128/128 49/129/129
f 46/130/130 45/131/131 50/132/132
f 53/133/133 54/134/134 55/135/135
f 58/136/136 61/137/137 56/138/138
f 58/139/139 63/140/140 61/141/141
f 62/142/142 57/143/143 60/144/144
f 62/145/145 59/146/146 57/147/147
f 58/148/148 62/149/149 63/150/150
f 58/151/151 59/152/152 62/153/153
f 57/154/154 61/155/155 60/156/156
f 57/157/157 56/158/158 61/159/159
f 64/160/160 65/161/161 66/162/162
f 69/163/163 72/164/164 67/165/165
f 69/166/166 74/167/167 72/168/168
f 73/169/169 68/170/170 71/171/171
f 73/172/172 70/173/173 68/174/174
f 69/175/175 73/176/176 74/177/177
f 69/178/178 70/179/179 73/180/180
f 68/181/181 72/182/182 71/183/183
f 68/184/184 67/185/185 72/186/186
f 75/187/187 76/188/188 77/189/189
f 80/190/190 83/191/191 78/192/192
f 80/193/193 85/194/194 83/195/195
f 84/196/196 79/197/197 82/198/198
f 84/199/199 81/200/200 79/201/201
f 80/202/202 84/203/203 85/204/204
f 80/205/205 81/206/206 84/207/207
f 79/208/208 83/209/209 82/210/210
f 79/211/211 78/212/212 83/213/213
f 86/214/214 87/215/215 88/216/216
f 11/217/217 10/218/218 9/219/219
f 22/220/220 21/221/221 20/222/222
f 33/223/223 32/224/224 31/225/225
f 44/226/226 43/227/227 42/228/228
f 55/229/229 54/230/230 53/231/231
f 66/232/232 65/233/233 64/234/234
f 77/235/235 76/236/236 75/237/237
f 88/238/238 87/239/239 86/240/240
