# Wavefront OBJ file
# Exported by Misfit Model 3D 1.3.8
# Wed Dec  4 08:15:32 2019

mtllib decorations.mtl

# 84 Vertices
v 4.974982 78.764893 16.976248
v -4.622723 78.708382 16.976248
v 5.26889 72.205582 16.982811
v 5.221297 72.205582 16.867924
v 5.106414 72.205582 16.820332
v 4.991523 72.205582 16.867924
v 4.943938 72.205582 16.982811
v 4.991523 72.205582 17.097702
v 5.106414 72.205582 17.145283
v 5.221297 72.205582 17.097702
v 5.26889 78.970825 16.982813
v 5.221297 78.970825 16.867922
v 5.106414 78.970825 16.820332
v 4.991523 78.970825 16.867922
v 4.943938 78.970825 16.982813
v 4.991523 78.970825 17.097698
v 5.106414 78.970825 17.145285
v 5.221297 78.970825 17.097698
v -4.557027 72.205582 16.982813
v -4.604611 72.205582 16.867924
v -4.719502 72.205582 16.820332
v -4.834386 72.205582 16.867924
v -4.881978 72.205582 16.982813
v -4.834386 72.205582 17.097704
v -4.719502 72.205582 17.145287
v -4.604611 72.205582 17.097704
v -4.557026 78.970825 16.982813
v -4.604611 78.970825 16.867926
v -4.719502 78.970825 16.820333
v -4.834385 78.970825 16.867926
v -4.881978 78.970825 16.982813
v -4.834385 78.970825 17.097698
v -4.719502 78.970825 17.145285
v -4.604611 78.970825 17.097698
v 0.35354 78.289368 16.976248
v 4.964957 77.414734 16.976248
v 2.925173 77.140846 16.976248
v -2.324315 78.372345 16.976248
v -2.302655 77.09967 16.976248
v -4.646176 77.361412 16.976248
v 0.321131 77.040947 16.976248
v 2.997873 78.429672 16.976248
v 65.130569 141.071213 -0.02362
v 75.085411 141.014709 0.01758
v 64.836693 134.511917 -0.031402
v 64.883812 134.511917 0.083682
v 64.998497 134.511917 0.131752
v 65.113579 134.511917 0.08463
v 65.161644 134.511917 -0.030056
v 65.114532 134.511917 -0.145143
v 64.99984 134.511917 -0.193198
v 64.884766 134.511917 -0.146092
v 64.836693 141.277145 -0.031402
v 64.883804 141.277145 0.083683
v 64.998489 141.277145 0.131746
v 65.113586 141.277145 0.084637
v 65.161644 141.277145 -0.030056
v 65.114532 141.277145 -0.14514
v 64.99984 141.277145 -0.193198
v 64.884766 141.277145 -0.146091
v 75.019745 134.511917 0.010741
v 75.066849 134.511917 0.125823
v 75.181541 134.511917 0.17389
v 75.296623 134.511917 0.126776
v 75.344696 134.511917 0.012088
v 75.297577 134.511917 -0.103001
v 75.182884 134.511917 -0.151062
v 75.067802 134.511917 -0.103951
v 75.019745 141.277161 0.010742
v 75.066849 141.277161 0.125823
v 75.181541 141.277161 0.17389
v 75.296623 141.277161 0.126772
v 75.344696 141.277161 0.012088
v 75.297569 141.277161 -0.102999
v 75.182892 141.277161 -0.151056
v 75.067802 141.277161 -0.103948
v 70.109192 140.595703 -0.003017
v 65.140602 139.721069 -0.023577
v 67.537582 139.447174 -0.013661
v 72.787025 140.67868 0.008068
v 72.765366 139.406006 0.007978
v 75.108864 139.66774 0.017675
v 70.141602 139.347275 -0.002882
v 67.464882 140.736008 -0.013961

# 288 Texture Coordinates
vt 0.0 1.0
vt 0.249626 1.0
vt 0.0 0.750948
vt 0.998503 1.0
vt 0.748877 0.750948
vt 0.748877 1.0
vt 0.499252 1.0
vt 0.249626 0.750948
vt 0.249626 1.0
vt 0.249626 1.0
vt 0.249626 0.750948
vt 0.0 0.750948
vt 0.499252 1.0
vt 0.748877 1.0
vt 0.499252 0.750948
vt 0.748877 0.750948
vt 0.499252 0.750948
vt 0.748877 1.0
vt 0.499252 1.0
vt 0.499252 0.750948
vt 0.249626 0.750948
vt 0.998503 1.0
vt 0.998503 0.750948
vt 0.748877 0.750948
vt 0.002138 0.000732
vt 0.012153 0.000732
vt 0.002138 0.748724
vt 0.012153 0.000732
vt 0.012153 0.748724
vt 0.002138 0.748724
vt 0.012153 0.000732
vt 0.020744 0.000732
vt 0.012153 0.748724
vt 0.020744 0.000732
vt 0.020744 0.748724
vt 0.012153 0.748724
vt 0.020744 0.000732
vt 0.027686 0.000732
vt 0.020744 0.748724
vt 0.027686 0.000732
vt 0.027686 0.748724
vt 0.020744 0.748724
vt 0.027686 0.000732
vt 0.03383 0.000732
vt 0.027686 0.748724
vt 0.03383 0.000732
vt 0.03383 0.748724
vt 0.027686 0.748724
vt 0.03383 0.000732
vt 0.039775 0.000732
vt 0.03383 0.748724
vt 0.039775 0.000732
vt 0.039775 0.748724
vt 0.03383 0.748724
vt 0.039775 0.000732
vt 0.046001 0.000732
vt 0.039775 0.748724
vt 0.046001 0.000732
vt 0.046001 0.748724
vt 0.039775 0.748724
vt 0.046001 0.000732
vt 0.053149 0.000732
vt 0.046001 0.748724
vt 0.053149 0.000732
vt 0.053149 0.748724
vt 0.046001 0.748724
vt 0.053149 0.000732
vt 0.062058 0.000732
vt 0.053149 0.748724
vt 0.062058 0.000732
vt 0.062058 0.748724
vt 0.053149 0.748724
vt 0.002138 0.000732
vt 0.012153 0.000732
vt 0.002138 0.748724
vt 0.012153 0.000732
vt 0.012153 0.748724
vt 0.002138 0.748724
vt 0.012153 0.000732
vt 0.020744 0.000732
vt 0.012153 0.748724
vt 0.020744 0.000732
vt 0.020744 0.748724
vt 0.012153 0.748724
vt 0.020744 0.000732
vt 0.027686 0.000732
vt 0.020744 0.748724
vt 0.027686 0.000732
vt 0.027686 0.748724
vt 0.020744 0.748724
vt 0.027686 0.000732
vt 0.03383 0.000732
vt 0.027686 0.748724
vt 0.03383 0.000732
vt 0.03383 0.748724
vt 0.027686 0.748724
vt 0.03383 0.000732
vt 0.039775 0.000732
vt 0.03383 0.748724
vt 0.039775 0.000732
vt 0.039775 0.748724
vt 0.03383 0.748724
vt 0.039775 0.000732
vt 0.046001 0.000732
vt 0.039775 0.748724
vt 0.046001 0.000732
vt 0.046001 0.748724
vt 0.039775 0.748724
vt 0.046001 0.000732
vt 0.053149 0.000732
vt 0.046001 0.748724
vt 0.053149 0.000732
vt 0.053149 0.748724
vt 0.046001 0.748724
vt 0.053149 0.000732
vt 0.062058 0.000732
vt 0.053149 0.748724
vt 0.062058 0.000732
vt 0.062058 0.748724
vt 0.053149 0.748724
vt 0.0 1.0
vt 0.249626 1.0
vt 0.0 0.750948
vt 0.998503 1.0
vt 0.748877 0.750948
vt 0.748877 1.0
vt 0.499252 1.0
vt 0.249626 0.750948
vt 0.249626 1.0
vt 0.249626 1.0
vt 0.249626 0.750948
vt 0.0 0.750948
vt 0.499252 1.0
vt 0.748877 1.0
vt 0.499252 0.750948
vt 0.748877 0.750948
vt 0.499252 0.750948
vt 0.748877 1.0
vt 0.499252 1.0
vt 0.499252 0.750948
vt 0.249626 0.750948
vt 0.998503 1.0
vt 0.998503 0.750948
vt 0.748877 0.750948
vt 0.002138 0.000732
vt 0.012153 0.000732
vt 0.002138 0.748724
vt 0.012153 0.000732
vt 0.012153 0.748724
vt 0.002138 0.748724
vt 0.012153 0.000732
vt 0.020744 0.000732
vt 0.012153 0.748724
vt 0.020744 0.000732
vt 0.020744 0.748724
vt 0.012153 0.748724
vt 0.020744 0.000732
vt 0.027686 0.000732
vt 0.020744 0.748724
vt 0.027686 0.000732
vt 0.027686 0.748724
vt 0.020744 0.748724
vt 0.027686 0.000732
vt 0.03383 0.000732
vt 0.027686 0.748724
vt 0.03383 0.000732
vt 0.03383 0.748724
vt 0.027686 0.748724
vt 0.03383 0.000732
vt 0.039775 0.000732
vt 0.03383 0.748724
vt 0.039775 0.000732
vt 0.039775 0.748724
vt 0.03383 0.748724
vt 0.039775 0.000732
vt 0.046001 0.000732
vt 0.039775 0.748724
vt 0.046001 0.000732
vt 0.046001 0.748724
vt 0.039775 0.748724
vt 0.046001 0.000732
vt 0.053149 0.000732
vt 0.046001 0.748724
vt 0.053149 0.000732
vt 0.053149 0.748724
vt 0.046001 0.748724
vt 0.053149 0.000732
vt 0.062058 0.000732
vt 0.053149 0.748724
vt 0.062058 0.000732
vt 0.062058 0.748724
vt 0.053149 0.748724
vt 0.002138 0.000732
vt 0.012153 0.000732
vt 0.002138 0.748724
vt 0.012153 0.000732
vt 0.012153 0.748724
vt 0.002138 0.748724
vt 0.012153 0.000732
vt 0.020744 0.000732
vt 0.012153 0.748724
vt 0.020744 0.000732
vt 0.020744 0.748724
vt 0.012153 0.748724
vt 0.020744 0.000732
vt 0.027686 0.000732
vt 0.020744 0.748724
vt 0.027686 0.000732
vt 0.027686 0.748724
vt 0.020744 0.748724
vt 0.027686 0.000732
vt 0.03383 0.000732
vt 0.027686 0.748724
vt 0.03383 0.000732
vt 0.03383 0.748724
vt 0.027686 0.748724
vt 0.03383 0.000732
vt 0.039775 0.000732
vt 0.03383 0.748724
vt 0.039775 0.000732
vt 0.039775 0.748724
vt 0.03383 0.748724
vt 0.039775 0.000732
vt 0.046001 0.000732
vt 0.039775 0.748724
vt 0.046001 0.000732
vt 0.046001 0.748724
vt 0.039775 0.748724
vt 0.046001 0.000732
vt 0.053149 0.000732
vt 0.046001 0.748724
vt 0.053149 0.000732
vt 0.053149 0.748724
vt 0.046001 0.748724
vt 0.053149 0.000732
vt 0.062058 0.000732
vt 0.053149 0.748724
vt 0.062058 0.000732
vt 0.062058 0.748724
vt 0.053149 0.748724
vt 0.0 0.750948
vt 0.249626 1.0
vt 0.0 1.0
vt 0.748877 1.0
vt 0.748877 0.750948
vt 0.998503 1.0
vt 0.249626 1.0
vt 0.249626 0.750948
vt 0.499252 1.0
vt 0.0 0.750948
vt 0.249626 0.750948
vt 0.249626 1.0
vt 0.499252 0.750948
vt 0.748877 1.0
vt 0.499252 1.0
vt 0.748877 1.0
vt 0.499252 0.750948
vt 0.748877 0.750948
vt 0.249626 0.750948
vt 0.499252 0.750948
vt 0.499252 1.0
vt 0.748877 0.750948
vt 0.998503 0.750948
vt 0.998503 1.0
vt 0.0 0.750948
vt 0.249626 1.0
vt 0.0 1.0
vt 0.748877 1.0
vt 0.748877 0.750948
vt 0.998503 1.0
vt 0.249626 1.0
vt 0.249626 0.750948
vt 0.499252 1.0
vt 0.0 0.750948
vt 0.249626 0.750948
vt 0.249626 1.0
vt 0.499252 0.750948
vt 0.748877 1.0
vt 0.499252 1.0
vt 0.748877 1.0
vt 0.499252 0.750948
vt 0.748877 0.750948
vt 0.249626 0.750948
vt 0.499252 0.750948
vt 0.499252 1.0
vt 0.748877 0.750948
vt 0.998503 0.750948
vt 0.998503 1.0

# 288 Vertex Normals
vn 0.0 0.0 -1.0
vn 0.0 -0.0 -1.0
vn 0.0 -0.0 -1.0
vn 0.0 -0.0 -1.0
vn 0.0 -0.0 -1.0
vn 0.0 0.0 -1.0
vn 0.0 0.0 -1.0
vn 0.0 0.0 -1.0
vn 0.0 -0.0 -1.0
vn 0.0 -0.0 -1.0
vn 0.0 0.0 -1.0
vn 0.0 -0.0 -1.0
vn 0.0 0.0 -1.0
vn 0.0 0.0 -1.0
vn 0.0 0.0 -1.0
vn 0.0 -0.0 -1.0
vn 0.0 0.0 -1.0
vn 0.0 0.0 -1.0
vn 0.0 0.0 -1.0
vn 0.0 0.0 -1.0
vn 0.0 0.0 -1.0
vn 0.0 -0.0 -1.0
vn 0.0 -0.000001 -1.0
vn 0.0 -0.0 -1.0
vn 0.990601 0.0 0.136785
vn 0.797171 -0.0 -0.603754
vn 0.990601 -0.0 -0.136781
vn 0.797171 -0.0 -0.603754
vn 0.603762 -0.0 -0.797164
vn 0.990601 -0.0 -0.136781
vn 0.797171 -0.0 -0.603754
vn 0.136792 -0.0 -0.9906
vn 0.603762 -0.0 -0.797164
vn 0.136792 -0.0 -0.9906
vn -0.136774 -0.0 -0.990602
vn 0.603762 -0.0 -0.797164
vn 0.136792 -0.0 -0.9906
vn -0.603761 -0.0 -0.797166
vn -0.136774 -0.0 -0.990602
vn -0.603761 -0.0 -0.797166
vn -0.797187 -0.0 -0.603733
vn -0.136774 -0.0 -0.990602
vn -0.603761 -0.0 -0.797166
vn -0.990603 -0.0 -0.136766
vn -0.797187 -0.0 -0.603733
vn -0.990603 -0.0 -0.136766
vn -0.990603 0.0 0.136768
vn -0.797187 -0.0 -0.603733
vn -0.990603 -0.0 -0.136766
vn -0.797172 0.0 0.603752
vn -0.990603 0.0 0.136768
vn -0.797172 0.0 0.603752
vn -0.603728 0.0 0.79719
vn -0.990603 0.0 0.136768
vn -0.797172 0.0 0.603752
vn -0.136757 -0.0 0.990605
vn -0.603728 0.0 0.79719
vn -0.136757 -0.0 0.990605
vn 0.136767 0.0 0.990603
vn -0.603728 0.0 0.79719
vn -0.136757 -0.0 0.990605
vn 0.603731 0.0 0.797188
vn 0.136767 0.0 0.990603
vn 0.603731 0.0 0.797188
vn 0.797162 0.0 0.603766
vn 0.136767 0.0 0.990603
vn 0.603731 0.0 0.797188
vn 0.990601 0.0 0.136785
vn 0.797162 0.0 0.603766
vn 0.990601 0.0 0.136785
vn 0.990601 -0.0 -0.136781
vn 0.797162 0.0 0.603766
vn 0.990604 0.0 0.136765
vn 0.797191 0.0 -0.603727
vn 0.990604 -0.0 -0.136759
vn 0.797191 0.0 -0.603727
vn 0.603765 0.0 -0.797163
vn 0.990604 -0.0 -0.136759
vn 0.797191 0.0 -0.603727
vn 0.136775 0.0 -0.990602
vn 0.603765 0.0 -0.797163
vn 0.136775 0.0 -0.990602
vn -0.136797 0.0 -0.990599
vn 0.603765 0.0 -0.797163
vn 0.136775 0.0 -0.990602
vn -0.603765 0.0 -0.797162
vn -0.136797 0.0 -0.990599
vn -0.603765 0.0 -0.797162
vn -0.79717 0.0 -0.603755
vn -0.136797 0.0 -0.990599
vn -0.603765 0.0 -0.797162
vn -0.9906 0.0 -0.13679
vn -0.79717 0.0 -0.603755
vn -0.9906 0.0 -0.13679
vn -0.990601 0.0 0.136784
vn -0.79717 0.0 -0.603755
vn -0.9906 0.0 -0.13679
vn -0.797156 0.0 0.603773
vn -0.990601 0.0 0.136784
vn -0.797156 0.0 0.603773
vn -0.603729 0.000001 0.797189
vn -0.990601 0.0 0.136784
vn -0.797156 0.0 0.603773
vn -0.13678 0.000001 0.990601
vn -0.603729 0.000001 0.797189
vn -0.13678 0.000001 0.990601
vn 0.136748 0.000001 0.990606
vn -0.603729 0.000001 0.797189
vn -0.13678 0.000001 0.990601
vn 0.603738 0.000001 0.797183
vn 0.136748 0.000001 0.990606
vn 0.603738 0.000001 0.797183
vn 0.797183 0.0 0.603738
vn 0.136748 0.000001 0.990606
vn 0.603738 0.000001 0.797183
vn 0.990604 0.0 0.136765
vn 0.797183 0.0 0.603738
vn 0.990604 0.0 0.136765
vn 0.990604 -0.0 -0.136759
vn 0.797183 0.0 0.603738
vn -0.004138 -0.000002 0.999991
vn -0.004139 -0.000001 0.999991
vn -0.004138 -0.000001 0.999991
vn -0.004137 0.0 0.999991
vn -0.004138 -0.0 0.999991
vn -0.004139 -0.0 0.999991
vn -0.004139 0.0 0.999991
vn -0.004139 0.0 0.999991
vn -0.004139 -0.000001 0.999991
vn -0.004139 -0.000001 0.999991
vn -0.004139 0.0 0.999991
vn -0.004138 -0.000001 0.999991
vn -0.004139 0.0 0.999991
vn -0.004139 -0.0 0.999991
vn -0.004139 0.0 0.999991
vn -0.004138 -0.0 0.999991
vn -0.004139 0.0 0.999991
vn -0.004139 -0.0 0.999991
vn -0.004139 0.0 0.999991
vn -0.004139 0.0 0.999991
vn -0.004139 0.0 0.999991
vn -0.004137 0.0 0.999991
vn -0.004137 0.000001 0.999991
vn -0.004138 -0.0 0.999991
vn -0.990025 0.0 -0.140891
vn -0.799679 -0.000001 0.600428
vn -0.991162 -0.0 0.132658
vn -0.799679 -0.000001 0.600428
vn -0.607071 -0.0 0.794648
vn -0.991162 -0.0 0.132658
vn -0.799679 -0.000001 0.600428
vn -0.14087 0.0 0.990028
vn -0.607071 -0.0 0.794648
vn -0.14087 0.0 0.990028
vn 0.132678 0.0 0.991159
vn -0.607071 -0.0 0.794648
vn -0.14087 0.0 0.990028
vn 0.600438 -0.000001 0.799672
vn 0.132678 0.0 0.991159
vn 0.600438 -0.000001 0.799672
vn 0.794654 -0.000001 0.607062
vn 0.132678 0.0 0.991159
vn 0.600438 -0.000001 0.799672
vn 0.990027 -0.000001 0.140881
vn 0.794654 -0.000001 0.607062
vn 0.990027 -0.000001 0.140881
vn 0.991159 0.0 -0.132681
vn 0.794654 -0.000001 0.607062
vn 0.990027 -0.000001 0.140881
vn 0.799654 0.0 -0.60046
vn 0.991159 0.0 -0.132681
vn 0.799654 0.0 -0.60046
vn 0.607006 0.0 -0.794698
vn 0.991159 0.0 -0.132681
vn 0.799654 0.0 -0.60046
vn 0.140832 0.0 -0.990033
vn 0.607006 0.0 -0.794698
vn 0.140832 0.0 -0.990033
vn -0.13268 0.0 -0.991159
vn 0.607006 0.0 -0.794698
vn 0.140832 0.0 -0.990033
vn -0.600426 0.0 -0.79968
vn -0.13268 0.0 -0.991159
vn -0.600426 0.0 -0.79968
vn -0.79465 0.0 -0.607068
vn -0.13268 0.0 -0.991159
vn -0.600426 0.0 -0.79968
vn -0.990025 0.0 -0.140891
vn -0.79465 0.0 -0.607068
vn -0.990025 0.0 -0.140891
vn -0.991162 -0.0 0.132658
vn -0.79465 0.0 -0.607068
vn -0.990031 0.0 -0.140847
vn -0.799697 -0.0 0.600404
vn -0.991163 0.0 0.13265
vn -0.799697 -0.0 0.600404
vn -0.607071 0.0 0.794648
vn -0.991163 0.0 0.13265
vn -0.799697 -0.0 0.600404
vn -0.140885 0.0 0.990026
vn -0.607071 0.0 0.794648
vn -0.140885 0.0 0.990026
vn 0.132686 0.0 0.991158
vn -0.607071 0.0 0.794648
vn -0.140885 0.0 0.990026
vn 0.600441 0.0 0.799669
vn 0.132686 0.0 0.991158
vn 0.600441 0.0 0.799669
vn 0.794643 0.0 0.607078
vn 0.132686 0.0 0.991158
vn 0.600441 0.0 0.799669
vn 0.990022 0.0 0.140915
vn 0.794643 0.0 0.607078
vn 0.990022 0.0 0.140915
vn 0.991157 0.0 -0.132694
vn 0.794643 0.0 0.607078
vn 0.990022 0.0 0.140915
vn 0.799634 0.000001 -0.600487
vn 0.991157 0.0 -0.132694
vn 0.799634 0.000001 -0.600487
vn 0.607013 0.000001 -0.794692
vn 0.991157 0.0 -0.132694
vn 0.799634 0.000001 -0.600487
vn 0.140866 0.000001 -0.990029
vn 0.607013 0.000001 -0.794692
vn 0.140866 0.000001 -0.990029
vn -0.132653 0.000001 -0.991163
vn 0.607013 0.000001 -0.794692
vn 0.140866 0.000001 -0.990029
vn -0.600443 0.000001 -0.799668
vn -0.132653 0.000001 -0.991163
vn -0.600443 0.000001 -0.799668
vn -0.794686 0.0 -0.607021
vn -0.132653 0.000001 -0.991163
vn -0.600443 0.000001 -0.799668
vn -0.990031 0.0 -0.140847
vn -0.794686 0.0 -0.607021
vn -0.990031 0.0 -0.140847
vn -0.991163 0.0 0.13265
vn -0.794686 0.0 -0.607021
vn 0.0 0.0 1.0
vn 0.0 -0.0 1.0
vn 0.0 0.0 1.0
vn 0.0 0.0 1.0
vn 0.0 0.0 1.0
vn 0.0 0.0 1.0
vn 0.0 -0.0 1.0
vn 0.0 -0.0 1.0
vn 0.0 -0.0 1.0
vn 0.0 0.0 1.0
vn 0.0 -0.0 1.0
vn 0.0 -0.0 1.0
vn 0.0 0.0 1.0
vn 0.0 0.0 1.0
vn 0.0 -0.0 1.0
vn 0.0 0.0 1.0
vn 0.0 0.0 1.0
vn 0.0 0.0 1.0
vn 0.0 -0.0 1.0
vn 0.0 0.0 1.0
vn 0.0 -0.0 1.0
vn 0.0 0.0 1.0
vn 0.0 0.0 1.0
vn 0.0 0.0 1.0
vn 0.004138 0.000001 -0.999991
vn 0.004139 0.000001 -0.999991
vn 0.004138 0.000002 -0.999991
vn 0.004139 0.0 -0.999991
vn 0.004138 0.0 -0.999991
vn 0.004137 -0.0 -0.999991
vn 0.004139 0.000001 -0.999991
vn 0.004139 -0.0 -0.999991
vn 0.004139 -0.0 -0.999991
vn 0.004138 0.000001 -0.999991
vn 0.004139 -0.0 -0.999991
vn 0.004139 0.000001 -0.999991
vn 0.004139 -0.0 -0.999991
vn 0.004139 0.0 -0.999991
vn 0.004139 -0.0 -0.999991
vn 0.004139 0.0 -0.999991
vn 0.004139 -0.0 -0.999991
vn 0.004138 0.0 -0.999991
vn 0.004139 -0.0 -0.999991
vn 0.004139 -0.0 -0.999991
vn 0.004139 -0.0 -0.999991
vn 0.004138 0.0 -0.999991
vn 0.004137 -0.000001 -0.999991
vn 0.004137 -0.0 -0.999991

# pole, 96 grouped triangles

usemtl decorations.jpg
o pole
g pole

f 2/1/1 38/2/2 40/3/3
f 1/4/4 37/5/5 42/6/6
f 35/7/7 39/8/8 38/9/9
f 38/10/10 39/11/11 40/12/12
f 35/13/13 42/14/14 41/15/15
f 37/16/16 41/17/17 42/18/18
f 35/19/19 41/20/20 39/21/21
f 1/22/22 36/23/23 37/24/24
f 3/25/25 4/26/26 11/27/27
f 4/28/28 12/29/29 11/30/30
f 4/31/31 5/32/32 12/33/33
f 5/34/34 13/35/35 12/36/36
f 5/37/37 6/38/38 13/39/39
f 6/40/40 14/41/41 13/42/42
f 6/43/43 7/44/44 14/45/45
f 7/46/46 15/47/47 14/48/48
f 7/49/49 8/50/50 15/51/51
f 8/52/52 16/53/53 15/54/54
f 8/55/55 9/56/56 16/57/57
f 9/58/58 17/59/59 16/60/60
f 9/61/61 10/62/62 17/63/63
f 10/64/64 18/65/65 17/66/66
f 10/67/67 3/68/68 18/69/69
f 3/70/70 11/71/71 18/72/72
f 19/73/73 20/74/74 27/75/75
f 20/76/76 28/77/77 27/78/78
f 20/79/79 21/80/80 28/81/81
f 21/82/82 29/83/83 28/84/84
f 21/85/85 22/86/86 29/87/87
f 22/88/88 30/89/89 29/90/90
f 22/91/91 23/92/92 30/93/93
f 23/94/94 31/95/95 30/96/96
f 23/97/97 24/98/98 31/99/99
f 24/100/100 32/101/101 31/102/102
f 24/103/103 25/104/104 32/105/105
f 25/106/106 33/107/107 32/108/108
f 25/109/109 26/110/110 33/111/111
f 26/112/112 34/113/113 33/114/114
f 26/115/115 19/116/116 34/117/117
f 19/118/118 27/119/119 34/120/120
f 44/121/121 80/122/122 82/123/123
f 43/124/124 79/125/125 84/126/126
f 77/127/127 81/128/128 80/129/129
f 80/130/130 81/131/131 82/132/132
f 77/133/133 84/134/134 83/135/135
f 79/136/136 83/137/137 84/138/138
f 77/139/139 83/140/140 81/141/141
f 43/142/142 78/143/143 79/144/144
f 45/145/145 46/146/146 53/147/147
f 46/148/148 54/149/149 53/150/150
f 46/151/151 47/152/152 54/153/153
f 47/154/154 55/155/155 54/156/156
f 47/157/157 48/158/158 55/159/159
f 48/160/160 56/161/161 55/162/162
f 48/163/163 49/164/164 56/165/165
f 49/166/166 57/167/167 56/168/168
f 49/169/169 50/170/170 57/171/171
f 50/172/172 58/173/173 57/174/174
f 50/175/175 51/176/176 58/177/177
f 51/178/178 59/179/179 58/180/180
f 51/181/181 52/182/182 59/183/183
f 52/184/184 60/185/185 59/186/186
f 52/187/187 45/188/188 60/189/189
f 45/190/190 53/191/191 60/192/192
f 61/193/193 62/194/194 69/195/195
f 62/196/196 70/197/197 69/198/198
f 62/199/199 63/200/200 70/201/201
f 63/202/202 71/203/203 70/204/204
f 63/205/205 64/206/206 71/207/207
f 64/208/208 72/209/209 71/210/210
f 64/211/211 65/212/212 72/213/213
f 65/214/214 73/215/215 72/216/216
f 65/217/217 66/218/218 73/219/219
f 66/220/220 74/221/221 73/222/222
f 66/223/223 67/224/224 74/225/225
f 67/226/226 75/227/227 74/228/228
f 67/229/229 68/230/230 75/231/231
f 68/232/232 76/233/233 75/234/234
f 68/235/235 61/236/236 76/237/237
f 61/238/238 69/239/239 76/240/240
f 40/241/241 38/242/242 2/243/243
f 42/244/244 37/245/245 1/246/246
f 38/247/247 39/248/248 35/249/249
f 40/250/250 39/251/251 38/252/252
f 41/253/253 42/254/254 35/255/255
f 42/256/256 41/257/257 37/258/258
f 39/259/259 41/260/260 35/261/261
f 37/262/262 36/263/263 1/264/264
f 82/265/265 80/266/266 44/267/267
f 84/268/268 79/269/269 43/270/270
f 80/271/271 81/272/272 77/273/273
f 82/274/274 81/275/275 80/276/276
f 83/277/277 84/278/278 77/279/279
f 84/280/280 83/281/281 79/282/282
f 81/283/283 83/284/284 77/285/285
f 79/286/286 78/287/287 43/288/288
