# Wavefront OBJ file
# Exported by Misfit Model 3D 1.3.8
# Thu Nov  7 11:40:58 2019

mtllib decorations.mtl

# 42 Vertices
v -55.108517 5.037666 -75.49188
v -55.108517 4.98116 -64.429117
v -55.101952 -2.98411 -75.785788
v -55.216839 -2.98411 -75.738195
v -55.264431 -2.98411 -75.623312
v -55.216839 -2.98411 -75.508421
v -55.101952 -2.98411 -75.460836
v -54.987061 -2.98411 -75.508421
v -54.93948 -2.98411 -75.623312
v -54.987061 -2.98411 -75.738195
v -55.101952 5.243599 -75.785788
v -55.216843 5.243599 -75.738195
v -55.264431 5.243599 -75.623312
v -55.216843 5.243599 -75.508421
v -55.101952 5.243599 -75.460836
v -54.987064 5.243599 -75.508421
v -54.93948 5.243599 -75.623312
v -54.987064 5.243599 -75.738195
v -55.101952 -2.984109 -64.494814
v -55.216839 -2.984109 -64.447229
v -55.264431 -2.984109 -64.332338
v -55.216839 -2.984109 -64.217455
v -55.101952 -2.984109 -64.169863
v -54.987061 -2.984109 -64.217455
v -54.939476 -2.984109 -64.332338
v -54.987061 -2.984109 -64.447229
v -55.101952 5.243599 -64.494814
v -55.216839 5.243599 -64.447229
v -55.264431 5.243599 -64.332338
v -55.216839 5.243599 -64.217455
v -55.101952 5.243599 -64.169863
v -54.987064 5.243599 -64.217455
v -54.93948 5.243599 -64.332338
v -54.987064 5.243599 -64.447229
v -55.108517 4.562147 -69.959297
v -55.108517 3.687513 -75.481855
v -55.108517 3.413626 -72.53093
v -55.108517 4.645123 -67.281441
v -55.108517 3.372447 -67.303101
v -55.108517 3.63419 -64.405664
v -55.108517 3.313724 -69.926888
v -55.108517 4.702452 -72.60363

# 144 Texture Coordinates
vt 0.0 1.0
vt 0.249626 1.0
vt 0.0 0.750948
vt 0.998503 1.0
vt 0.748877 0.750948
vt 0.748877 1.0
vt 0.499252 1.0
vt 0.249626 0.750948
vt 0.249626 1.0
vt 0.249626 1.0
vt 0.249626 0.750948
vt 0.0 0.750948
vt 0.499252 1.0
vt 0.748877 1.0
vt 0.499252 0.750948
vt 0.748877 0.750948
vt 0.499252 0.750948
vt 0.748877 1.0
vt 0.499252 1.0
vt 0.499252 0.750948
vt 0.249626 0.750948
vt 0.998503 1.0
vt 0.998503 0.750948
vt 0.748877 0.750948
vt 0.002138 0.000732
vt 0.012153 0.000732
vt 0.002138 0.748724
vt 0.012153 0.000732
vt 0.012153 0.748724
vt 0.002138 0.748724
vt 0.012153 0.000732
vt 0.020744 0.000732
vt 0.012153 0.748724
vt 0.020744 0.000732
vt 0.020744 0.748724
vt 0.012153 0.748724
vt 0.020744 0.000732
vt 0.027686 0.000732
vt 0.020744 0.748724
vt 0.027686 0.000732
vt 0.027686 0.748724
vt 0.020744 0.748724
vt 0.027686 0.000732
vt 0.03383 0.000732
vt 0.027686 0.748724
vt 0.03383 0.000732
vt 0.03383 0.748724
vt 0.027686 0.748724
vt 0.03383 0.000732
vt 0.039775 0.000732
vt 0.03383 0.748724
vt 0.039775 0.000732
vt 0.039775 0.748724
vt 0.03383 0.748724
vt 0.039775 0.000732
vt 0.046001 0.000732
vt 0.039775 0.748724
vt 0.046001 0.000732
vt 0.046001 0.748724
vt 0.039775 0.748724
vt 0.046001 0.000732
vt 0.053149 0.000732
vt 0.046001 0.748724
vt 0.053149 0.000732
vt 0.053149 0.748724
vt 0.046001 0.748724
vt 0.053149 0.000732
vt 0.062058 0.000732
vt 0.053149 0.748724
vt 0.062058 0.000732
vt 0.062058 0.748724
vt 0.053149 0.748724
vt 0.002138 0.000732
vt 0.012153 0.000732
vt 0.002138 0.748724
vt 0.012153 0.000732
vt 0.012153 0.748724
vt 0.002138 0.748724
vt 0.012153 0.000732
vt 0.020744 0.000732
vt 0.012153 0.748724
vt 0.020744 0.000732
vt 0.020744 0.748724
vt 0.012153 0.748724
vt 0.020744 0.000732
vt 0.027686 0.000732
vt 0.020744 0.748724
vt 0.027686 0.000732
vt 0.027686 0.748724
vt 0.020744 0.748724
vt 0.027686 0.000732
vt 0.03383 0.000732
vt 0.027686 0.748724
vt 0.03383 0.000732
vt 0.03383 0.748724
vt 0.027686 0.748724
vt 0.03383 0.000732
vt 0.039775 0.000732
vt 0.03383 0.748724
vt 0.039775 0.000732
vt 0.039775 0.748724
vt 0.03383 0.748724
vt 0.039775 0.000732
vt 0.046001 0.000732
vt 0.039775 0.748724
vt 0.046001 0.000732
vt 0.046001 0.748724
vt 0.039775 0.748724
vt 0.046001 0.000732
vt 0.053149 0.000732
vt 0.046001 0.748724
vt 0.053149 0.000732
vt 0.053149 0.748724
vt 0.046001 0.748724
vt 0.053149 0.000732
vt 0.062058 0.000732
vt 0.053149 0.748724
vt 0.062058 0.000732
vt 0.062058 0.748724
vt 0.053149 0.748724
vt 0.0 0.750948
vt 0.249626 1.0
vt 0.0 1.0
vt 0.748877 1.0
vt 0.748877 0.750948
vt 0.998503 1.0
vt 0.249626 1.0
vt 0.249626 0.750948
vt 0.499252 1.0
vt 0.0 0.750948
vt 0.249626 0.750948
vt 0.249626 1.0
vt 0.499252 0.750948
vt 0.748877 1.0
vt 0.499252 1.0
vt 0.748877 1.0
vt 0.499252 0.750948
vt 0.748877 0.750948
vt 0.249626 0.750948
vt 0.499252 0.750948
vt 0.499252 1.0
vt 0.748877 0.750948
vt 0.998503 0.750948
vt 0.998503 1.0

# 144 Vertex Normals
vn -1.0 0.0 0.0
vn -1.0 0.0 0.0
vn -1.0 0.0 0.0
vn -1.0 0.0 0.0
vn -1.0 0.0 0.0
vn -1.0 0.0 0.0
vn -1.0 0.0 0.0
vn -1.0 0.0 0.0
vn -1.0 0.0 0.0
vn -1.0 0.0 0.0
vn -1.0 0.0 0.0
vn -1.0 0.0 0.0
vn -1.0 0.0 0.0
vn -1.0 0.0 0.0
vn -1.0 0.0 0.0
vn -1.0 0.0 0.0
vn -1.0 0.0 0.0
vn -1.0 0.0 0.0
vn -1.0 0.0 0.0
vn -1.0 0.0 0.0
vn -1.0 0.0 0.0
vn -1.0 0.0 0.0
vn -1.0 0.0 0.0
vn -1.0 0.0 0.0
vn 0.136775 0.0 -0.990602
vn -0.603754 -0.0 -0.797171
vn -0.136786 -0.0 -0.990601
vn -0.603754 -0.0 -0.797171
vn -0.797168 -0.0 -0.603757
vn -0.136786 -0.0 -0.990601
vn -0.603754 -0.0 -0.797171
vn -0.9906 -0.0 -0.136787
vn -0.797168 -0.0 -0.603757
vn -0.9906 -0.0 -0.136787
vn -0.990603 -0.0 0.136772
vn -0.797168 -0.0 -0.603757
vn -0.9906 -0.0 -0.136787
vn -0.79717 -0.0 0.603755
vn -0.990603 -0.0 0.136772
vn -0.79717 -0.0 0.603755
vn -0.603735 -0.0 0.797185
vn -0.990603 -0.0 0.136772
vn -0.79717 -0.0 0.603755
vn -0.136768 0.0 0.990603
vn -0.603735 -0.0 0.797185
vn -0.136768 0.0 0.990603
vn 0.136757 0.0 0.990605
vn -0.603735 -0.0 0.797185
vn -0.136768 0.0 0.990603
vn 0.603743 0.0 0.797179
vn 0.136757 0.0 0.990605
vn 0.603743 0.0 0.797179
vn 0.797191 0.0 0.603728
vn 0.136757 0.0 0.990605
vn 0.603743 0.0 0.797179
vn 0.990605 0.0 0.136751
vn 0.797191 0.0 0.603728
vn 0.990605 0.0 0.136751
vn 0.990603 0.0 -0.136766
vn 0.797191 0.0 0.603728
vn 0.990605 0.0 0.136751
vn 0.797189 0.0 -0.60373
vn 0.990603 0.0 -0.136766
vn 0.797189 0.0 -0.60373
vn 0.603761 0.0 -0.797165
vn 0.990603 0.0 -0.136766
vn 0.797189 0.0 -0.60373
vn 0.136775 0.0 -0.990602
vn 0.603761 0.0 -0.797165
vn 0.136775 0.0 -0.990602
vn -0.136786 -0.0 -0.990601
vn 0.603761 0.0 -0.797165
vn 0.136761 0.0 -0.990604
vn -0.603732 0.0 -0.797188
vn -0.136765 0.0 -0.990603
vn -0.603732 0.0 -0.797188
vn -0.797164 0.0 -0.603763
vn -0.136765 0.0 -0.990603
vn -0.603732 0.0 -0.797188
vn -0.990602 0.0 -0.136773
vn -0.797164 0.0 -0.603763
vn -0.990602 0.0 -0.136773
vn -0.990599 0.0 0.136796
vn -0.797164 0.0 -0.603763
vn -0.990602 0.0 -0.136773
vn -0.797165 0.0 0.603762
vn -0.990599 0.0 0.136796
vn -0.797165 0.0 0.603762
vn -0.603757 0.0 0.797168
vn -0.990599 0.0 0.136796
vn -0.797165 0.0 0.603762
vn -0.13679 0.0 0.9906
vn -0.603757 0.0 0.797168
vn -0.13679 0.0 0.9906
vn 0.136783 0.0 0.990601
vn -0.603757 0.0 0.797168
vn -0.13679 0.0 0.9906
vn 0.603768 0.0 0.79716
vn 0.136783 0.0 0.990601
vn 0.603768 0.0 0.79716
vn 0.797188 0.0 0.603732
vn 0.136783 0.0 0.990601
vn 0.603768 0.0 0.79716
vn 0.990602 0.0 0.136775
vn 0.797188 0.0 0.603732
vn 0.990602 0.0 0.136775
vn 0.990605 0.0 -0.136752
vn 0.797188 0.0 0.603732
vn 0.990602 0.0 0.136775
vn 0.797185 0.0 -0.603735
vn 0.990605 0.0 -0.136752
vn 0.797185 0.0 -0.603735
vn 0.603742 0.0 -0.79718
vn 0.990605 0.0 -0.136752
vn 0.797185 0.0 -0.603735
vn 0.136761 0.0 -0.990604
vn 0.603742 0.0 -0.79718
vn 0.136761 0.0 -0.990604
vn -0.136765 0.0 -0.990603
vn 0.603742 0.0 -0.79718
vn 1.0 0.0 -0.0
vn 1.0 0.0 -0.0
vn 1.0 0.0 0.0
vn 1.0 0.0 0.0
vn 1.0 0.0 0.0
vn 1.0 0.0 0.0
vn 1.0 0.0 -0.0
vn 1.0 0.0 -0.0
vn 1.0 0.0 0.0
vn 1.0 0.0 -0.0
vn 1.0 0.0 -0.0
vn 1.0 0.0 -0.0
vn 1.0 0.0 0.0
vn 1.0 0.0 0.0
vn 1.0 0.0 0.0
vn 1.0 0.0 0.0
vn 1.0 0.0 0.0
vn 1.0 0.0 0.0
vn 1.0 0.0 -0.0
vn 1.0 0.0 0.0
vn 1.0 0.0 0.0
vn 1.0 0.0 0.0
vn 1.0 0.0 0.0
vn 1.0 0.0 0.0

# pole, 48 grouped triangles

usemtl decorations.jpg
o pole
g pole

f 2/1/1 38/2/2 40/3/3
f 1/4/4 37/5/5 42/6/6
f 35/7/7 39/8/8 38/9/9
f 38/10/10 39/11/11 40/12/12
f 35/13/13 42/14/14 41/15/15
f 37/16/16 41/17/17 42/18/18
f 35/19/19 41/20/20 39/21/21
f 1/22/22 36/23/23 37/24/24
f 3/25/25 4/26/26 11/27/27
f 4/28/28 12/29/29 11/30/30
f 4/31/31 5/32/32 12/33/33
f 5/34/34 13/35/35 12/36/36
f 5/37/37 6/38/38 13/39/39
f 6/40/40 14/41/41 13/42/42
f 6/43/43 7/44/44 14/45/45
f 7/46/46 15/47/47 14/48/48
f 7/49/49 8/50/50 15/51/51
f 8/52/52 16/53/53 15/54/54
f 8/55/55 9/56/56 16/57/57
f 9/58/58 17/59/59 16/60/60
f 9/61/61 10/62/62 17/63/63
f 10/64/64 18/65/65 17/66/66
f 10/67/67 3/68/68 18/69/69
f 3/70/70 11/71/71 18/72/72
f 19/73/73 20/74/74 27/75/75
f 20/76/76 28/77/77 27/78/78
f 20/79/79 21/80/80 28/81/81
f 21/82/82 29/83/83 28/84/84
f 21/85/85 22/86/86 29/87/87
f 22/88/88 30/89/89 29/90/90
f 22/91/91 23/92/92 30/93/93
f 23/94/94 31/95/95 30/96/96
f 23/97/97 24/98/98 31/99/99
f 24/100/100 32/101/101 31/102/102
f 24/103/103 25/104/104 32/105/105
f 25/106/106 33/107/107 32/108/108
f 25/109/109 26/110/110 33/111/111
f 26/112/112 34/113/113 33/114/114
f 26/115/115 19/116/116 34/117/117
f 19/118/118 27/119/119 34/120/120
f 40/121/121 38/122/122 2/123/123
f 42/124/124 37/125/125 1/126/126
f 38/127/127 39/128/128 35/129/129
f 40/130/130 39/131/131 38/132/132
f 41/133/133 42/134/134 35/135/135
f 42/136/136 41/137/137 37/138/138
f 39/139/139 41/140/140 35/141/141
f 37/142/142 36/143/143 1/144/144
