# Wavefront OBJ file
# Exported by Misfit Model 3D 1.3.8
# Tue Oct 15 17:33:25 2019

mtllib back.mtl

# 4 Vertices
v 1000.0 -1000.0 -1000.0
v -1000.0 -1000.0 -1000.0
v 1000.0 1000.0 -1000.0
v -1000.0 1000.0 -1000.0

# 6 Texture Coordinates
vt 1.0 1.0
vt 0.0 0.0
vt 1.0 0.0
vt 1.0 1.0
vt 0.0 1.0
vt 0.0 0.0

# 6 Vertex Normals
vn 0.0 0.0 1.0
vn 0.0 0.0 1.0
vn 0.0 0.0 1.0
vn 0.0 0.0 1.0
vn 0.0 0.0 1.0
vn 0.0 0.0 1.0

# back, 2 grouped triangles

usemtl debug/debug_bk.jpg
o back
g back

f 3/1/1 2/2/2 1/3/3
f 3/4/4 4/5/5 2/6/6
