# Wavefront OBJ file
# Exported by Misfit Model 3D 1.3.8
# Tue Oct 15 17:10:22 2019

mtllib right.mtl

# 4 Vertices
v 1000.0 -1000.0 -1000.0
v 1000.0 1000.0 -1000.0
v 1000.0 -1000.0 1000.0
v 1000.0 1000.0 1000.0

# 6 Texture Coordinates
vt 0.0 0.0
vt 1.0 0.0
vt 0.0 1.0
vt 1.0 0.0
vt 1.0 1.0
vt 0.0 1.0

# 6 Vertex Normals
vn -1.0 0.0 0.0
vn -1.0 0.0 0.0
vn -1.0 0.0 0.0
vn -1.0 0.0 0.0
vn -1.0 0.0 0.0
vn -1.0 0.0 0.0

# right, 2 grouped triangles

o right
g right

f 1/1/1 3/2/2 2/3/3
f 3/4/4 4/5/5 2/6/6
