# Wavefront OBJ file
# Exported by Misfit Model 3D 1.3.8
# Mon Oct 21 14:45:29 2019

mtllib lava.mtl

# 9 Vertices
v -34.265511 -14.611591 -68.580643
v -83.354073 -14.611591 -48.247494
v -103.68721 -14.611591 0.84107
v -83.354073 -14.611591 49.92963
v -34.265511 -14.611591 70.262787
v 14.823047 -14.611591 49.929634
v 35.156197 -14.611591 0.841075
v 14.82305 -14.611591 -48.24749
v -34.265511 -14.611591 0.84107

# 24 Texture Coordinates
vt 0.5 0.5
vt 0.5 1.0
vt 0.146447 0.853553
vt 0.5 0.5
vt 0.146447 0.853553
vt 0.0 0.5
vt 0.5 0.5
vt 0.0 0.5
vt 0.146447 0.146447
vt 0.5 0.5
vt 0.146447 0.146447
vt 0.5 0.0
vt 0.5 0.5
vt 0.5 0.0
vt 0.853553 0.146447
vt 0.5 0.5
vt 0.853553 0.146447
vt 1.0 0.5
vt 0.5 0.5
vt 1.0 0.5
vt 0.853553 0.853553
vt 0.5 0.5
vt 0.853553 0.853553
vt 0.5 1.0

# 24 Vertex Normals
vn 0.0 1.0 0.0
vn 0.0 1.0 0.0
vn -0.0 1.0 0.0
vn 0.0 1.0 0.0
vn -0.0 1.0 0.0
vn 0.0 1.0 0.0
vn 0.0 1.0 0.0
vn 0.0 1.0 0.0
vn 0.0 1.0 0.0
vn 0.0 1.0 0.0
vn 0.0 1.0 0.0
vn -0.0 1.0 0.0
vn 0.0 1.0 0.0
vn -0.0 1.0 0.0
vn 0.0 1.0 0.0
vn 0.0 1.0 0.0
vn 0.0 1.0 0.0
vn 0.0 1.0 0.0
vn 0.0 1.0 0.0
vn 0.0 1.0 0.0
vn 0.0 1.0 0.0
vn 0.0 1.0 0.0
vn 0.0 1.0 0.0
vn 0.0 1.0 0.0

# floor, 8 grouped triangles

usemtl skybox/vulcan/vulcan_dn.jpg
o floor
g floor

f 9/1/1 1/2/2 2/3/3
f 9/4/4 2/5/5 3/6/6
f 9/7/7 3/8/8 4/9/9
f 9/10/10 4/11/11 5/12/12
f 9/13/13 5/14/14 6/15/15
f 9/16/16 6/17/17 7/18/18
f 9/19/19 7/20/20 8/21/21
f 9/22/22 8/23/23 1/24/24
