# Wavefront OBJ file
# Exported by Misfit Model 3D 1.3.8
# Wed Oct 30 14:44:27 2019

mtllib lights.mtl

# 8 Vertices
v 0.85885 0.049794 -1.558657
v 0.304087 0.017622 -0.847893
v -0.872845 0.049794 -1.558657
v -0.312062 0.017622 -0.847893
v -1.389433 0.383149 3.416545
v -0.497233 0.011374 0.91048
v 1.395567 0.383149 3.416545
v 0.493688 0.011374 0.91048

# 12 Texture Coordinates
vt 0.603839 0.721828
vt 0.384191 0.721828
vt 0.384191 0.966154
vt 0.384191 0.966154
vt 0.603839 0.966154
vt 0.603839 0.721828
vt 0.01829 0.002708
vt 0.077865 0.001644
vt 0.133466 0.100905
vt 0.133466 0.100905
vt -0.033972 0.103894
vt 0.01829 0.002708

# 12 Vertex Normals
vn 0.0 0.998977 0.045219
vn 0.0 0.998977 0.045219
vn 0.0 0.998977 0.045219
vn 0.0 0.998977 0.045219
vn 0.0 0.998977 0.045219
vn 0.0 0.998977 0.045219
vn 0.0 0.989174 -0.146744
vn 0.0 0.989174 -0.146744
vn 0.0 0.989174 -0.146744
vn 0.0 0.989174 -0.146744
vn 0.0 0.989174 -0.146744
vn 0.0 0.989174 -0.146744

# nightlights, 4 grouped triangles

usemtl lights.png
o nightlights
g nightlights

f 4/1/1 2/2/2 1/3/3
f 1/4/4 3/5/5 4/6/6
f 8/7/7 6/8/8 5/9/9
f 5/10/10 7/11/11 8/12/12
