# Wavefront OBJ file
# Exported by Misfit Model 3D 1.3.8
# Mon Oct 21 18:55:40 2019

mtllib shadow.mtl

# 8 Vertices
v 0.612887 0.029506 -0.716911
v -0.624623 0.029506 -0.716911
v -0.624623 0.029506 0.627306
v 0.612887 0.029506 0.627306
v 0.389848 0.029506 -0.829793
v -0.380684 0.029506 -0.829793
v -0.420675 0.029506 0.873485
v 0.412206 0.029506 0.873485

# 18 Texture Coordinates
vt 1.0 1.0
vt 0.0 0.0
vt 1.0 0.0
vt 1.0 1.0
vt 0.0 1.0
vt 0.0 0.0
vt 1.0 1.0
vt 0.0 0.0
vt 1.0 0.0
vt 1.0 1.0
vt 0.0 1.0
vt 0.0 0.0
vt 1.0 1.0
vt 0.0 0.0
vt 1.0 0.0
vt 1.0 1.0
vt 0.0 1.0
vt 0.0 0.0

# 18 Vertex Normals
vn 0.0 1.0 -0.0
vn 0.0 1.0 -0.0
vn 0.0 1.0 -0.0
vn 0.0 1.0 -0.0
vn 0.0 1.0 -0.0
vn 0.0 1.0 -0.0
vn 0.0 1.0 -0.0
vn 0.0 1.0 -0.0
vn 0.0 1.0 -0.0
vn 0.0 1.0 -0.0
vn 0.0 1.0 -0.0
vn 0.0 1.0 -0.0
vn 0.0 1.0 -0.0
vn 0.0 1.0 -0.0
vn 0.0 1.0 -0.0
vn 0.0 1.0 -0.0
vn 0.0 1.0 -0.0
vn 0.0 1.0 -0.0

# shadow, 6 grouped triangles

usemtl shadow.png
o shadow
g shadow

f 1/1/1 3/2/2 4/3/3
f 1/4/4 2/5/5 3/6/6
f 5/7/7 2/8/8 1/9/9
f 5/10/10 6/11/11 2/12/12
f 4/13/13 7/14/14 8/15/15
f 4/16/16 3/17/17 7/18/18
